<?xml version="1.0" encoding="UTF-8"?>
<svg id="OBJECTS" xmlns="http://www.w3.org/2000/svg" xmlns:xlink="http://www.w3.org/1999/xlink" viewBox="0 0 178.89 217.22">
  <defs>
    <style>
      .cls-1 {
        fill: url(#linear-gradient-2);
      }

      .cls-2 {
        fill: url(#linear-gradient-4);
      }

      .cls-3 {
        fill: url(#linear-gradient-3);
      }

      .cls-4 {
        fill: url(#linear-gradient-5);
      }

      .cls-5 {
        fill: url(#linear-gradient-6);
      }

      .cls-6 {
        fill: url(#linear-gradient);
      }
    </style>
    <linearGradient id="linear-gradient" x1="96.3" y1="160.38" x2="123.69" y2="160.38" gradientUnits="userSpaceOnUse">
      <stop offset="0" stop-color="#0007c1"/>
      <stop offset="1" stop-color="#157fff"/>
    </linearGradient>
    <linearGradient id="linear-gradient-2" x1="105.25" y1="153.21" x2="130.87" y2="153.21" xlink:href="#linear-gradient"/>
    <linearGradient id="linear-gradient-3" x1="114.21" y1="146.04" x2="138.05" y2="146.04" xlink:href="#linear-gradient"/>
    <linearGradient id="linear-gradient-4" x1="0" y1="158.76" x2="170.26" y2="158.76" xlink:href="#linear-gradient"/>
    <linearGradient id="linear-gradient-5" x1="57.26" y1="36.64" x2="57.26" y2="186.88" gradientUnits="userSpaceOnUse">
      <stop offset="0" stop-color="red"/>
      <stop offset="1" stop-color="#ff9500"/>
    </linearGradient>
    <linearGradient id="linear-gradient-6" x1="115.53" y1="36.64" x2="115.53" y2="186.88" xlink:href="#linear-gradient-5"/>
  </defs>
  <g>
    <path class="cls-6" d="M97.04,147.66c-1.07.95-.97,2.64.2,3.75l22.83,21.76c.77.73,2.07.71,2.92-.04.85-.75.94-1.97.19-2.72l-22.14-22.37c-1.13-1.15-2.93-1.32-4-.37Z"/>
    <path class="cls-1" d="M130.14,166.78c.85-.75.98-2.01.29-2.81l-20.53-23.8c-1.05-1.22-2.78-1.45-3.85-.5s-1.04,2.7.05,3.89l21.22,23.18c.72.78,1.98.8,2.83.04Z"/>
    <path class="cls-3" d="M137.28,160.43c.85-.75,1.03-2.05.39-2.9l-18.93-25.22c-.97-1.29-2.63-1.59-3.7-.64-1.07.95-1.11,2.76-.1,4.02l19.62,24.61c.66.83,1.88.88,2.73.13Z"/>
    <path class="cls-2" d="M130.79,171.84l-6.14,5.45c-2.49,2.21-6.35,2.38-8.73.3l-24.9-21.78c-3.79-3.32-4.31-8.58-.96-11.56l22.4-19.91c3.36-2.98,8.52-1.85,11.37,2.3l18.71,27.28c1.79,2.6,1.16,6.42-1.32,8.63l-5.57,4.95,20.31,21.49c14.76-15.7,18.9-39.56,8.58-59.88-13.15-25.92-44.83-36.28-70.76-23.12-24.28,12.32-34.9,40.9-25.34,65.77l-62.85,27.54c-4.92,2.16-7.02,8-4.59,12.79,2.42,4.76,8.33,6.54,12.97,3.89l59.72-34.04c14.53,22.05,43.61,30.17,67.73,17.93,3.01-1.52,5.79-3.31,8.37-5.29l-19.01-22.75ZM18.57,205.36l-8.25,4.19c-.95.48-2.11.1-2.59-.85-.48-.95-.1-2.11.85-2.59l8.25-4.19c.95-.48,2.11-.1,2.59.85.48.95.1,2.11-.85,2.59ZM78.97,172.55c-10.83-21.34-2.31-47.41,19.03-58.24,21.34-10.83,47.41-2.31,58.24,19.03.39.77.75,1.55,1.09,2.34-11.47-19.66-36.43-27.21-57-16.77-20.57,10.43-29.22,35.03-20.13,55.9-.43-.74-.85-1.49-1.24-2.26Z"/>
  </g>
  <g>
    <path class="cls-4" d="M63.21,166.97c-2.3-8.8-2.41-17.68-.6-26.04-5.79-3.54-10.97-11.58-10.97-11.58-4.23,13.52,4.77,30.19,12,40.68l.33-.14-.76-2.92Z"/>
    <path class="cls-5" d="M62.69,140.58c1.23-5.52,3.3-10.8,6.12-15.67-15.75-15.83.01-49.83.01-49.83-6.04,27.17,2.42,38.07,6.03,41.34,4.71-5.46,10.54-10.09,17.36-13.55.91-.46,1.84-.88,2.78-1.3,3.8-5.13,9.1-16.4,1.54-34.05,0,0,8.91,14.96,19.72,8.9,15.15-8.48.89-30.32.89-30.32,0,0,19.76,13.37,8.85,41.91-1.35,3.52-2.16,6.52-2.59,9.09,4.49.47,8.86,1.48,13.04,2.97.24-2.57,1.19-6.76,4.21-12.63,4.48-8.7-3.67-26.51-3.67-26.51,0,0,12.25,9.94,8.45,29.58-1.49,7.69.6,12.55,2.45,15.16,7.15,4.58,13.26,10.75,17.75,18.15,2.84-1.42,6.96-6.31,7.4-22.52,0,0,3.25,22.51-2.08,34.07,1.41,4.28,2.27,8.68,2.62,13.09,17.6-49.85-14.15-92.85-14.15-92.85,6.01,17.36,11.67,26.33,8.17,39.27-3.07,11.37-7.75,5.14-8.1,3.55-2.77-12.68-9.9-33.45-24.55-47.97C99.86,15.7,141.78.74,141.78.74c0,0-24.88-6.75-35.57,20.57-10.69,27.33,11.79,32.69,1.61,37.73-13.82,6.84-11.07-25-11.07-25-20.81,36.58,4.78,58.47-12.62,62.63-21.21,5.07,2.11-45.38,2.11-45.38,0,0-36.95,21.6-33.88,57.53,1.75,20.49,6.57,28.58,10.33,31.76Z"/>
  </g>
</svg>